<svg xmlns="http://www.w3.org/2000/svg" xmlns:xlink="http://www.w3.org/1999/xlink" width="500" zoomAndPan="magnify" viewBox="0 0 375 374.999991" height="500" preserveAspectRatio="xMidYMid meet" version="1.0"><path fill="#fbdc08" d="M 124.113281 180.242188 C 112.351562 181.203125 103.164062 190.617188 100.199219 204.734375 C 97.597656 217.117188 104.957031 232.308594 115.621094 236.566406 C 127.714844 241.402344 144.585938 236.488281 151.503906 226.117188 C 158.621094 215.449219 155.457031 195.792969 145.214844 187.035156 C 140.117188 182.675781 131.796875 179.609375 126.304688 180.0625 C 126.128906 180.078125 125.144531 180.160156 124.113281 180.242188 M 209.699219 181.351562 C 200.6875 182.445312 191.792969 192.820312 189.179688 205.289062 C 189.007812 206.113281 188.679688 207.59375 188.453125 208.574219 C 186.207031 218.328125 190.96875 230.691406 199.035156 236.03125 C 208.949219 242.597656 222.160156 239.65625 229.730469 229.191406 C 235.457031 221.277344 234.984375 205.464844 228.628906 192.335938 C 224.949219 184.730469 217.492188 180.40625 209.699219 181.351562 M 139.859375 200.171875 C 143.597656 202.101562 145.378906 208.335938 144.03125 214.785156 C 142.003906 224.492188 132.378906 224.550781 130.691406 214.863281 C 128.996094 205.160156 133.996094 197.148438 139.859375 200.171875 M 207.039062 200.21875 C 210.742188 201.945312 212.714844 206.667969 212.753906 213.925781 C 212.777344 217.515625 212.546875 218.589844 211.367188 220.429688 C 207.691406 226.167969 200.441406 222.519531 199.753906 214.582031 C 198.9375 205.183594 202.523438 198.113281 207.039062 200.21875 M 171.546875 232.214844 C 168.9375 232.644531 166.738281 233.660156 166.378906 234.609375 C 165.046875 238.117188 180.582031 239.199219 182.171875 235.707031 C 183.164062 233.519531 176.652344 231.378906 171.546875 232.214844 " fill-opacity="1" fill-rule="evenodd"/><path fill="#040404" d="M 65.617188 88.34375 C 57.929688 90.320312 53.476562 97.183594 48.585938 114.605469 C 44.820312 128.011719 43.695312 137.882812 44.730469 148.402344 C 45.191406 153.117188 45.148438 160.332031 44.628906 164.734375 C 44.359375 167.007812 44.046875 169.625 43.9375 170.554688 C 43.144531 177.296875 44.136719 182.695312 47.652344 190.738281 C 50.121094 196.378906 50.140625 198.292969 47.8125 205.652344 C 44.660156 215.628906 43.941406 223.210938 45.671875 228.25 C 46.019531 229.269531 45.960938 229.589844 45.410156 229.597656 C 44.324219 229.621094 40.15625 232.28125 38.3125 234.136719 L 36.878906 235.578125 L 35.5 235.183594 C 33.410156 234.589844 28.070312 234.59375 25.65625 235.1875 C 18.925781 236.851562 13.6875 240.777344 11.09375 246.105469 L 10.125 248.09375 L 8.304688 249.003906 C 3.125 251.59375 0.261719 257.164062 0.238281 264.710938 C 0.214844 271.910156 4.160156 277.476562 9.277344 277.476562 C 9.886719 277.476562 10.007812 277.566406 10.40625 278.273438 C 13.339844 283.503906 22.402344 285.679688 29.714844 282.917969 C 31.691406 282.171875 34.90625 280.453125 35.339844 279.914062 C 35.621094 279.558594 36.121094 279.582031 36.421875 279.957031 C 41.226562 286.027344 51.605469 287.441406 59.269531 283.070312 C 60.046875 282.628906 60.867188 282.164062 61.09375 282.039062 C 61.320312 281.914062 62.179688 281.1875 62.996094 280.425781 L 64.488281 279.035156 L 65.707031 280.007812 C 67.988281 281.824219 69.863281 282.59375 72.554688 282.816406 C 79.785156 283.421875 84.828125 278.21875 85.375 269.59375 L 85.492188 267.808594 L 97.113281 267.902344 C 113.546875 268.035156 144.453125 268.019531 193.105469 267.851562 C 265.082031 267.605469 272.722656 267.589844 275.070312 267.664062 L 277.359375 267.738281 L 277.570312 268.386719 C 280.683594 277.824219 293.558594 282.164062 301.128906 276.324219 L 302.101562 275.574219 L 303.472656 276.730469 C 309.175781 281.535156 318.832031 281.917969 324.1875 277.550781 C 325.171875 276.75 324.898438 276.644531 326.816406 278.574219 C 333 284.804688 342.621094 284.863281 349.203125 278.71875 L 350.136719 277.84375 L 350.738281 278.296875 C 356.839844 282.875 366.890625 278.574219 369.894531 270.097656 C 374.804688 256.234375 363.984375 240.871094 346.929688 237.484375 C 345.363281 237.171875 344.347656 237.101562 341.921875 237.128906 L 338.882812 237.160156 L 337.613281 236.304688 C 328.03125 229.824219 312.855469 229.0625 302.648438 234.542969 C 301.542969 235.136719 300.53125 235.726562 300.398438 235.851562 C 300.265625 235.976562 299.820312 236.3125 299.40625 236.597656 C 298.996094 236.882812 298.066406 237.703125 297.339844 238.421875 L 296.019531 239.726562 L 295.105469 239.453125 C 291.160156 238.261719 285.167969 239.796875 281 243.058594 C 279.316406 244.375 279.238281 244.414062 279.085938 244.011719 C 278.265625 241.785156 277.730469 240.472656 277.007812 238.894531 C 273.40625 231.066406 273.304688 225.609375 276.628906 218.335938 C 280.753906 209.3125 281.066406 206.984375 279.515625 197.027344 C 277.464844 183.867188 280.261719 173.402344 291.394531 152.625 C 292.417969 150.714844 293.617188 148.476562 294.0625 147.652344 C 294.503906 146.824219 295.222656 145.515625 295.660156 144.742188 C 303.667969 130.519531 308.660156 120.425781 310.941406 113.832031 C 315.421875 100.867188 311.648438 96.207031 301.707031 102.425781 C 294.472656 106.953125 283.460938 116.066406 271.472656 127.460938 C 259.683594 138.664062 253.539062 143.351562 245.132812 147.558594 C 243.007812 148.621094 240.003906 149.9375 238.195312 150.601562 C 232.128906 152.816406 227.597656 154.042969 220.992188 155.25 C 219.21875 155.574219 218.867188 155.582031 216.585938 155.347656 C 215.21875 155.207031 212.207031 154.914062 209.886719 154.695312 C 200.011719 153.765625 192.378906 152.671875 183.636719 150.929688 C 182.660156 150.734375 180.296875 150.273438 178.386719 149.90625 C 176.480469 149.539062 174.078125 149.074219 173.046875 148.871094 C 156.382812 145.578125 148.011719 145.171875 132.890625 146.910156 C 119.589844 148.4375 117.449219 147.550781 108.886719 136.949219 C 104.871094 131.972656 104.535156 131.605469 98.429688 125.496094 C 92.089844 119.152344 92.019531 119.042969 90.359375 113.386719 C 89.800781 111.472656 89.8125 111.515625 88.476562 108.410156 C 87.507812 106.15625 85.503906 102.203125 85.09375 101.730469 C 84.953125 101.566406 84.835938 101.375 84.835938 101.300781 C 84.835938 101.074219 82.339844 97.34375 82.078125 97.183594 C 81.945312 97.101562 81.835938 96.949219 81.835938 96.847656 C 81.835938 95.847656 76.125 90.941406 73.585938 89.753906 C 71.046875 88.570312 67.308594 87.910156 65.617188 88.34375 M 132.300781 180.566406 C 141.167969 182.496094 147.691406 187.527344 151.746094 195.5625 C 156.035156 204.074219 156.609375 216.550781 153.03125 223.6875 C 148.519531 232.695312 138.339844 238.316406 126.550781 238.3125 C 115.464844 238.3125 109.609375 235.175781 104.328125 226.410156 C 96.582031 213.554688 98.574219 197.773438 109.292969 187.074219 C 113.289062 183.085938 116.910156 181.289062 123.269531 180.152344 C 124.605469 179.914062 130.550781 180.1875 132.300781 180.566406 M 214.292969 181.445312 C 220.894531 182.414062 225.511719 185.8125 228.582031 191.960938 C 234.933594 204.671875 235.566406 221.648438 229.96875 229.039062 C 216.136719 247.304688 191.875 241.050781 188.320312 218.300781 C 186.332031 205.574219 193.304688 189.402344 203.378906 183.375 C 206.601562 181.445312 210.089844 180.828125 214.292969 181.445312 M 136.230469 199.765625 C 129.363281 201.113281 128.277344 218.496094 134.871094 221.558594 C 137.296875 222.6875 139.59375 221.992188 141.675781 219.503906 C 145.097656 215.417969 145.214844 205.488281 141.886719 201.796875 C 140.441406 200.199219 138.175781 199.382812 136.230469 199.765625 M 203.757812 200.402344 C 200.125 202.054688 198.355469 213.472656 200.917969 218.710938 C 203.71875 224.441406 209.78125 224.542969 212.042969 218.898438 L 212.605469 217.496094 L 212.570312 213.457031 C 212.492188 204.207031 208.476562 198.253906 203.757812 200.402344 M 178.425781 232.519531 C 185.390625 234.214844 182.875 237.992188 174.824219 237.929688 C 165.820312 237.855469 162.875 233.871094 170.703125 232.351562 C 173.675781 231.773438 175.515625 231.8125 178.425781 232.519531 " fill-opacity="1" fill-rule="evenodd"/><path fill="#5c4f05" d="M 124.160156 180.171875 C 124.496094 180.214844 125.042969 180.214844 125.378906 180.171875 C 125.714844 180.132812 125.4375 180.097656 124.769531 180.097656 C 124.097656 180.097656 123.824219 180.132812 124.160156 180.171875 M 128.101562 180.171875 C 128.4375 180.214844 128.941406 180.214844 129.226562 180.171875 C 129.507812 180.128906 129.230469 180.09375 128.613281 180.09375 C 127.992188 180.097656 127.761719 180.132812 128.101562 180.171875 M 220.945312 183.6875 C 220.945312 183.738281 221.199219 183.914062 221.507812 184.074219 C 221.816406 184.234375 222.070312 184.320312 222.070312 184.269531 C 222.070312 184.21875 221.816406 184.046875 221.507812 183.886719 C 221.199219 183.726562 220.945312 183.636719 220.945312 183.6875 M 109.203125 187.125 L 107.613281 188.765625 L 109.253906 187.175781 C 110.777344 185.699219 110.980469 185.480469 110.84375 185.480469 C 110.816406 185.480469 110.078125 186.222656 109.203125 187.125 M 224.601562 186.421875 C 225.109375 186.9375 225.570312 187.359375 225.621094 187.359375 C 225.671875 187.359375 225.296875 186.9375 224.789062 186.421875 C 224.28125 185.902344 223.824219 185.480469 223.773438 185.480469 C 223.722656 185.480469 224.09375 185.902344 224.601562 186.421875 M 198.722656 187.03125 L 197.605469 188.203125 L 198.777344 187.082031 C 199.421875 186.46875 199.949219 185.9375 199.949219 185.910156 C 199.949219 185.769531 199.761719 185.941406 198.722656 187.03125 M 145.953125 187.605469 C 145.953125 187.636719 146.226562 187.910156 146.5625 188.214844 L 147.171875 188.765625 L 146.621094 188.15625 C 146.109375 187.585938 145.953125 187.460938 145.953125 187.605469 M 148.847656 190.988281 C 149.136719 191.367188 149.410156 191.675781 149.457031 191.675781 C 149.585938 191.675781 148.777344 190.578125 148.535156 190.429688 C 148.417969 190.359375 148.558594 190.609375 148.847656 190.988281 M 205.152344 199.882812 C 205.386719 199.929688 205.722656 199.925781 205.902344 199.878906 C 206.082031 199.832031 205.890625 199.796875 205.480469 199.796875 C 205.066406 199.800781 204.921875 199.839844 205.152344 199.882812 M 141.265625 201.125 C 141.265625 201.15625 141.542969 201.429688 141.875 201.734375 L 142.484375 202.285156 L 141.933594 201.675781 C 141.421875 201.105469 141.265625 200.976562 141.265625 201.125 M 209.121094 201.910156 C 210.230469 203.175781 210.390625 203.324219 209.933594 202.660156 C 209.71875 202.351562 209.265625 201.84375 208.921875 201.535156 C 208.464844 201.117188 208.515625 201.214844 209.121094 201.910156 M 200.617188 204.738281 C 200.550781 205.015625 200.53125 205.277344 200.574219 205.320312 C 200.617188 205.363281 200.710938 205.175781 200.78125 204.898438 C 200.847656 204.625 200.867188 204.363281 200.824219 204.320312 C 200.78125 204.273438 200.6875 204.464844 200.617188 204.738281 M 130.863281 206.507812 C 130.789062 206.832031 130.773438 207.140625 130.820312 207.1875 C 130.867188 207.234375 130.960938 207.003906 131.027344 206.671875 C 131.183594 205.890625 131.03125 205.738281 130.863281 206.507812 M 154.996094 206.507812 C 154.996094 206.871094 155.035156 207.019531 155.082031 206.839844 C 155.128906 206.65625 155.128906 206.363281 155.082031 206.179688 C 155.035156 206 154.996094 206.148438 154.996094 206.507812 M 155.183594 208.574219 C 155.183594 208.9375 155.222656 209.082031 155.269531 208.902344 C 155.316406 208.722656 155.316406 208.425781 155.269531 208.246094 C 155.222656 208.066406 155.183594 208.210938 155.183594 208.574219 M 144.335938 210.546875 C 144.335938 211.578125 144.367188 211.976562 144.40625 211.429688 C 144.445312 210.886719 144.441406 210.039062 144.402344 209.554688 C 144.367188 209.066406 144.335938 209.511719 144.335938 210.546875 M 199.804688 209.324219 C 199.804688 209.6875 199.84375 209.835938 199.890625 209.65625 C 199.9375 209.472656 199.9375 209.179688 199.890625 208.996094 C 199.84375 208.816406 199.804688 208.964844 199.804688 209.324219 M 99.507812 209.886719 C 99.507812 210.351562 99.546875 210.542969 99.589844 210.3125 C 99.636719 210.078125 99.636719 209.699219 99.589844 209.464844 C 99.546875 209.234375 99.507812 209.425781 99.507812 209.886719 M 233.574219 211.203125 C 233.574219 212.082031 233.605469 212.441406 233.644531 212 C 233.683594 211.5625 233.683594 210.84375 233.644531 210.40625 C 233.605469 209.964844 233.574219 210.324219 233.574219 211.203125 M 212.566406 211.203125 C 212.566406 211.769531 212.601562 212.003906 212.644531 211.71875 C 212.6875 211.433594 212.6875 210.96875 212.644531 210.6875 C 212.601562 210.402344 212.566406 210.632812 212.566406 211.203125 M 187.992188 211.015625 C 187.992188 211.375 188.03125 211.523438 188.078125 211.34375 C 188.125 211.164062 188.125 210.867188 188.078125 210.6875 C 188.03125 210.507812 187.992188 210.652344 187.992188 211.015625 M 199.625 212.703125 C 199.625 213.167969 199.660156 213.359375 199.707031 213.128906 C 199.75 212.894531 199.75 212.515625 199.707031 212.28125 C 199.660156 212.050781 199.625 212.242188 199.625 212.703125 M 212.765625 214.300781 C 212.765625 215.332031 212.796875 215.730469 212.835938 215.1875 C 212.875 214.640625 212.875 213.796875 212.835938 213.308594 C 212.796875 212.820312 212.765625 213.269531 212.765625 214.300781 M 233.765625 215.238281 C 233.769531 216.480469 233.796875 216.960938 233.835938 216.3125 C 233.871094 215.660156 233.871094 214.648438 233.835938 214.058594 C 233.796875 213.46875 233.765625 214 233.765625 215.238281 M 155.183594 214.582031 C 155.183594 214.941406 155.222656 215.09375 155.269531 214.910156 C 155.316406 214.730469 155.316406 214.433594 155.269531 214.253906 C 155.222656 214.074219 155.183594 214.222656 155.183594 214.582031 M 188.007812 215.332031 C 188.007812 216.003906 188.042969 216.277344 188.085938 215.945312 C 188.128906 215.609375 188.128906 215.058594 188.085938 214.722656 C 188.042969 214.386719 188.007812 214.660156 188.007812 215.332031 M 143.625 215.816406 C 143.554688 216.089844 143.535156 216.351562 143.578125 216.394531 C 143.621094 216.441406 143.714844 216.253906 143.785156 215.976562 C 143.851562 215.703125 143.875 215.441406 143.828125 215.394531 C 143.785156 215.351562 143.691406 215.542969 143.625 215.816406 M 154.996094 216.460938 C 154.996094 216.820312 155.035156 216.96875 155.082031 216.789062 C 155.128906 216.609375 155.128906 216.3125 155.082031 216.132812 C 155.035156 215.949219 154.996094 216.097656 154.996094 216.460938 M 233.550781 218.148438 C 233.550781 218.511719 233.589844 218.660156 233.636719 218.476562 C 233.683594 218.296875 233.683594 218 233.636719 217.820312 C 233.589844 217.640625 233.550781 217.789062 233.550781 218.148438 M 132.25 219.433594 C 132.351562 219.621094 132.582031 219.894531 132.761719 220.042969 C 132.964844 220.207031 132.917969 220.078125 132.644531 219.699219 C 132.152344 219.023438 131.964844 218.898438 132.25 219.433594 M 140.414062 220.792969 C 140.34375 220.90625 140.023438 221.15625 139.699219 221.355469 C 139.375 221.554688 139.214844 221.714844 139.34375 221.714844 C 139.582031 221.714844 140.898438 220.605469 140.667969 220.597656 C 140.597656 220.59375 140.484375 220.679688 140.414062 220.792969 M 206.371094 223.347656 C 206.550781 223.394531 206.847656 223.394531 207.027344 223.347656 C 207.207031 223.300781 207.058594 223.261719 206.699219 223.261719 C 206.335938 223.261719 206.191406 223.300781 206.371094 223.347656 M 103.019531 224.15625 C 103.230469 224.570312 103.445312 224.90625 103.496094 224.90625 C 103.546875 224.90625 103.417969 224.570312 103.207031 224.15625 C 102.996094 223.746094 102.78125 223.40625 102.730469 223.40625 C 102.679688 223.40625 102.808594 223.746094 103.019531 224.15625 M 229.945312 228.851562 C 229.726562 229.160156 229.585938 229.414062 229.640625 229.414062 C 229.691406 229.414062 229.914062 229.160156 230.132812 228.851562 C 230.355469 228.539062 230.492188 228.289062 230.441406 228.289062 C 230.390625 228.289062 230.167969 228.539062 229.945312 228.851562 M 108.363281 231.855469 C 109.082031 232.578125 109.707031 233.167969 109.757812 233.167969 C 109.8125 233.167969 109.265625 232.578125 108.550781 231.855469 C 107.835938 231.132812 107.207031 230.539062 107.15625 230.539062 C 107.105469 230.539062 107.648438 231.132812 108.363281 231.855469 M 227.035156 232.277344 L 225.726562 233.636719 L 227.085938 232.328125 C 228.347656 231.113281 228.53125 230.917969 228.394531 230.917969 C 228.363281 230.917969 227.753906 231.527344 227.035156 232.277344 M 145.765625 232.066406 C 145.113281 232.640625 145.113281 232.640625 145.714844 232.238281 C 146.046875 232.019531 146.367188 231.757812 146.429688 231.660156 C 146.609375 231.363281 146.460938 231.457031 145.765625 232.066406 M 195.167969 232.980469 C 195.988281 233.808594 196.703125 234.484375 196.753906 234.484375 C 196.804688 234.484375 196.175781 233.808594 195.355469 232.980469 C 194.535156 232.15625 193.820312 231.480469 193.769531 231.480469 C 193.71875 231.480469 194.347656 232.15625 195.167969 232.980469 M 173.65625 231.988281 C 173.886719 232.03125 174.265625 232.03125 174.5 231.988281 C 174.730469 231.941406 174.539062 231.90625 174.078125 231.90625 C 173.613281 231.90625 173.421875 231.941406 173.65625 231.988281 M 175.996094 232.171875 C 176.179688 232.21875 176.472656 232.21875 176.652344 232.171875 C 176.835938 232.125 176.6875 232.085938 176.328125 232.085938 C 175.964844 232.085938 175.816406 232.125 175.996094 232.171875 M 166.820312 233.839844 L 166.296875 234.324219 L 166.90625 233.898438 C 167.242188 233.664062 167.515625 233.449219 167.515625 233.414062 C 167.515625 233.269531 167.308594 233.394531 166.820312 233.839844 M 174.402344 238 C 174.734375 238.039062 175.324219 238.039062 175.710938 238 C 176.101562 237.960938 175.828125 237.925781 175.105469 237.925781 C 174.386719 237.921875 174.066406 237.957031 174.402344 238 M 121.441406 238.179688 C 121.621094 238.226562 121.917969 238.226562 122.097656 238.179688 C 122.277344 238.132812 122.128906 238.09375 121.769531 238.09375 C 121.40625 238.09375 121.261719 238.132812 121.441406 238.179688 M 130.910156 238.183594 C 131.144531 238.230469 131.480469 238.226562 131.660156 238.179688 C 131.839844 238.132812 131.648438 238.097656 131.234375 238.097656 C 130.824219 238.101562 130.675781 238.136719 130.910156 238.183594 M 123.503906 238.367188 C 123.683594 238.414062 123.976562 238.414062 124.160156 238.367188 C 124.339844 238.320312 124.191406 238.28125 123.832031 238.28125 C 123.46875 238.28125 123.324219 238.320312 123.503906 238.367188 M 128.941406 238.367188 C 129.121094 238.414062 129.417969 238.414062 129.597656 238.367188 C 129.777344 238.320312 129.628906 238.28125 129.269531 238.28125 C 128.90625 238.28125 128.757812 238.320312 128.941406 238.367188 M 208.996094 239.691406 C 209.691406 239.726562 210.832031 239.726562 211.527344 239.691406 C 212.222656 239.65625 211.652344 239.625 210.261719 239.625 C 208.867188 239.625 208.300781 239.65625 208.996094 239.691406 " fill-opacity="1" fill-rule="evenodd"/></svg>